<svg width="20" height="20" viewBox="0 0 20 20" fill="none" xmlns="http://www.w3.org/2000/svg">
<g clip-path="url(#clip0_132_560)">
<path d="M9.72222 1.80078C12.3199 1.80078 12.6275 1.8125 13.6491 1.85937C14.5985 1.90234 15.1112 2.06641 15.453 2.20313C15.905 2.38281 16.2316 2.60156 16.5696 2.94922C16.9114 3.30078 17.1202 3.63281 17.2949 4.09766C17.4278 4.44922 17.5874 4.98047 17.6291 5.95312C17.6747 7.00781 17.6861 7.32422 17.6861 9.99219C17.6861 12.6641 17.6747 12.9805 17.6291 14.0313C17.5874 15.0078 17.4278 15.5352 17.2949 15.8867C17.1202 16.3516 16.9076 16.6875 16.5696 17.0352C16.2278 17.3867 15.905 17.6016 15.453 17.7813C15.1112 17.918 14.5947 18.082 13.6491 18.125C12.6237 18.1719 12.3161 18.1836 9.72222 18.1836C7.12457 18.1836 6.81695 18.1719 5.79536 18.125C4.84592 18.082 4.33323 17.918 3.99143 17.7813C3.5395 17.6016 3.21289 17.3828 2.87489 17.0352C2.53309 16.6836 2.32422 16.3516 2.14952 15.8867C2.0166 15.5352 1.8571 15.0039 1.81532 14.0313C1.76975 12.9766 1.75836 12.6602 1.75836 9.99219C1.75836 7.32031 1.76975 7.00391 1.81532 5.95312C1.8571 4.97656 2.0166 4.44922 2.14952 4.09766C2.32422 3.63281 2.53689 3.29688 2.87489 2.94922C3.21669 2.59766 3.5395 2.38281 3.99143 2.20313C4.33323 2.06641 4.84972 1.90234 5.79536 1.85937C6.81695 1.8125 7.12457 1.80078 9.72222 1.80078ZM9.72222 0C7.08279 0 6.75239 0.0117187 5.7156 0.0585938C4.68262 0.105469 3.97244 0.277344 3.35721 0.523438C2.71539 0.78125 2.17231 1.12109 1.63303 1.67969C1.08995 2.23438 0.759549 2.79297 0.508898 3.44922C0.26964 4.08594 0.102539 4.8125 0.0569662 5.875C0.0113932 6.94531 0 7.28516 0 10C0 12.7148 0.0113932 13.0547 0.0569662 14.1211C0.102539 15.1836 0.26964 15.9141 0.508898 16.5469C0.759549 17.207 1.08995 17.7656 1.63303 18.3203C2.17231 18.875 2.71539 19.2188 3.35341 19.4727C3.97244 19.7188 4.67882 19.8906 5.71181 19.9375C6.74859 19.9844 7.07899 19.9961 9.71843 19.9961C12.3579 19.9961 12.6883 19.9844 13.725 19.9375C14.758 19.8906 15.4682 19.7188 16.0834 19.4727C16.7215 19.2188 17.2645 18.875 17.8038 18.3203C18.3431 17.7656 18.6773 17.207 18.9242 16.5508C19.1634 15.9141 19.3305 15.1875 19.3761 14.125C19.4217 13.0586 19.4331 12.7188 19.4331 10.0039C19.4331 7.28906 19.4217 6.94922 19.3761 5.88281C19.3305 4.82031 19.1634 4.08984 18.9242 3.45703C18.6849 2.79297 18.3545 2.23438 17.8114 1.67969C17.2721 1.125 16.7291 0.78125 16.091 0.527344C15.472 0.28125 14.7656 0.109375 13.7326 0.0625C12.6921 0.0117188 12.3617 0 9.72222 0Z" fill="white"/>
<path d="M9.72206 4.86328C6.9649 4.86328 4.72803 7.16406 4.72803 10C4.72803 12.8359 6.9649 15.1367 9.72206 15.1367C12.4792 15.1367 14.7161 12.8359 14.7161 10C14.7161 7.16406 12.4792 4.86328 9.72206 4.86328ZM9.72206 13.332C7.93332 13.332 6.48258 11.8398 6.48258 10C6.48258 8.16016 7.93332 6.66797 9.72206 6.66797C11.5108 6.66797 12.9615 8.16016 12.9615 10C12.9615 11.8398 11.5108 13.332 9.72206 13.332Z" fill="white"/>
<path d="M16.0799 4.66016C16.0799 5.32422 15.5558 5.85938 14.914 5.85938C14.2683 5.85938 13.748 5.32032 13.748 4.66016C13.748 3.99609 14.2721 3.46094 14.914 3.46094C15.5558 3.46094 16.0799 4 16.0799 4.66016Z" fill="white"/>
</g>
<defs>
<clipPath id="clip0_132_560">
<rect width="19.4444" height="20" fill="white"/>
</clipPath>
</defs>
</svg>
